name C:\Users\u0093377\Documents\Projects\3-Antoinne\AdDB\\GRF\AdDB_Squat_2_GRF.mot
datacolumns 19
datarows 27
range 0.00100000 0.02700000
endheader

                time	     ground_force_vx	     ground_force_vy	     ground_force_vz	     ground_force_px	     ground_force_py	     ground_force_pz	   1_ground_force_vx	   1_ground_force_vy	   1_ground_force_vz	   1_ground_force_px	   1_ground_force_py	   1_ground_force_pz	     ground_torque_x	     ground_torque_y	     ground_torque_z	   1_ground_torque_x	   1_ground_torque_y	   1_ground_torque_z	
          0.00100000	        -32.69793466	        330.80558827	        -44.42060809	         -0.21593880	          0.00000000	          0.21307998	         35.11094820	        279.57627871	         47.79411954	         -0.53362307	          0.00000000	         -0.24089262	          0.00000000	          0.94511131	          0.00000000	          0.00000000	         -0.41552806	          0.00000000	
          0.00200000	        -32.68793426	        330.80563535	        -44.42247210	         -0.21593613	          0.00000000	          0.21307250	         35.11074001	        279.53962536	         47.79662456	         -0.53360375	          0.00000000	         -0.24088468	          0.00000000	          0.94631334	          0.00000000	          0.00000000	         -0.41325650	          0.00000000	
          0.00300000	        -32.67790014	        330.80594859	        -44.42417804	         -0.21593329	          0.00000000	          0.21306450	         35.11030337	        279.50412815	         47.79909316	         -0.53358331	          0.00000000	         -0.24087678	          0.00000000	          0.94749198	          0.00000000	          0.00000000	         -0.41099359	          0.00000000	
          0.00400000	        -32.66786018	        330.80656359	        -44.42571585	         -0.21593029	          0.00000000	          0.21305597	         35.10962161	        279.46986969	         47.80151292	         -0.53356174	          0.00000000	         -0.24086893	          0.00000000	          0.94864385	          0.00000000	          0.00000000	         -0.40874516	          0.00000000	
          0.00500000	        -32.65784033	        330.80751176	        -44.42707740	         -0.21592713	          0.00000000	          0.21304689	         35.10867914	        279.43692718	         47.80387193	         -0.53353902	          0.00000000	         -0.24086118	          0.00000000	          0.94976612	          0.00000000	          0.00000000	         -0.40651656	          0.00000000	
          0.00600000	        -32.64786463	        330.80881981	        -44.42825648	         -0.21592381	          0.00000000	          0.21303726	         35.10746163	        279.40537100	         47.80615916	         -0.53351516	          0.00000000	         -0.24085353	          0.00000000	          0.95085648	          0.00000000	          0.00000000	         -0.40431279	          0.00000000	
          0.00700000	        -32.63795511	        330.81051002	        -44.42924833	         -0.21592032	          0.00000000	          0.21302706	         35.10595588	        279.37525881	         47.80836461	         -0.53349016	          0.00000000	         -0.24084601	          0.00000000	          0.95191312	          0.00000000	          0.00000000	         -0.40213868	          0.00000000	
          0.00800000	        -32.62813162	        330.81260131	        -44.43004982	         -0.21591668	          0.00000000	          0.21301631	         35.10414949	        279.34662787	         47.81047885	         -0.53346404	          0.00000000	         -0.24083863	          0.00000000	          0.95293474	          0.00000000	          0.00000000	         -0.39999888	          0.00000000	
          0.00900000	        -32.61841151	        330.81511008	        -44.43065958	         -0.21591288	          0.00000000	          0.21300499	         35.10203085	        279.31949267	         47.81249272	         -0.53343679	          0.00000000	         -0.24083143	          0.00000000	          0.95392050	          0.00000000	          0.00000000	         -0.39789760	          0.00000000	
          0.01000000	        -32.60880947	        330.81804906	        -44.43107753	         -0.21590892	          0.00000000	          0.21299311	         35.09958947	        279.29385115	         47.81439792	         -0.53340843	          0.00000000	         -0.24082440	          0.00000000	          0.95486979	          0.00000000	          0.00000000	         -0.39583853	          0.00000000	
          0.01100000	        -32.59933798	        330.82142504	        -44.43130407	         -0.21590480	          0.00000000	          0.21298067	         35.09681658	        279.26969171	         47.81618719	         -0.53337899	          0.00000000	         -0.24081758	          0.00000000	          0.95578216	          0.00000000	          0.00000000	         -0.39382484	          0.00000000	
          0.01200000	        -32.59000781	        330.82523846	        -44.43134005	         -0.21590051	          0.00000000	          0.21296768	         35.09370533	        279.24699535	         47.81785353	         -0.53334848	          0.00000000	         -0.24081096	          0.00000000	          0.95665740	          0.00000000	          0.00000000	         -0.39185939	          0.00000000	
          0.01300000	        -32.58082795	        330.82948538	        -44.43118729	         -0.21589605	          0.00000000	          0.21295413	         35.09025016	        279.22573536	         47.81938928	         -0.53331694	          0.00000000	         -0.24080456	          0.00000000	          0.95749573	          0.00000000	          0.00000000	         -0.38994477	          0.00000000	
          0.01400000	        -32.57180572	        330.83415937	        -44.43084882	         -0.21589142	          0.00000000	          0.21294005	         35.08644595	        279.20587661	         47.82078613	         -0.53328439	          0.00000000	         -0.24079840	          0.00000000	          0.95829780	          0.00000000	          0.00000000	         -0.38808344	          0.00000000	
          0.01500000	        -32.56294712	        330.83925199	        -44.43032887	         -0.21588661	          0.00000000	          0.21292543	         35.08228752	        279.18737627	         47.82203423	         -0.53325089	          0.00000000	         -0.24079247	          0.00000000	          0.95906459	          0.00000000	          0.00000000	         -0.38627784	          0.00000000	
          0.01600000	        -32.55425741	        330.84475257	        -44.42963236	         -0.21588163	          0.00000000	          0.21291029	         35.07777083	        279.17018684	         47.82312169	         -0.53321646	          0.00000000	         -0.24078679	          0.00000000	          0.95979737	          0.00000000	          0.00000000	         -0.38453015	          0.00000000	
          0.01700000	        -32.54574145	        330.85064787	        -44.42876469	         -0.21587645	          0.00000000	          0.21289463	         35.07289649	        279.15425775	         47.82403534	         -0.53318117	          0.00000000	         -0.24078136	          0.00000000	          0.96049754	          0.00000000	          0.00000000	         -0.38284214	          0.00000000	
          0.01800000	        -32.53740371	        330.85692284	        -44.42773153	         -0.21587110	          0.00000000	          0.21287846	         35.06767207	        279.13953152	         47.82476220	         -0.53314505	          0.00000000	         -0.24077619	          0.00000000	          0.96116655	          0.00000000	          0.00000000	         -0.38121506	          0.00000000	
          0.01900000	        -32.52924817	        330.86356221	        -44.42653783	         -0.21586555	          0.00000000	          0.21286180	         35.06211039	        279.12593940	         47.82529029	         -0.53310817	          0.00000000	         -0.24077127	          0.00000000	          0.96180567	          0.00000000	          0.00000000	         -0.37964971	          0.00000000	
          0.02000000	        -32.52127829	        330.87055104	        -44.42518711	         -0.21585982	          0.00000000	          0.21284466	         35.05622794	        279.11340426	         47.82560911	         -0.53307058	          0.00000000	         -0.24076662	          0.00000000	          0.96241597	          0.00000000	          0.00000000	         -0.37814641	          0.00000000	
          0.02100000	        -32.51349671	        330.87787479	        -44.42368193	         -0.21585391	          0.00000000	          0.21282706	         35.05004540	        279.10184811	         47.82570910	         -0.53303231	          0.00000000	         -0.24076222	          0.00000000	          0.96299836	          0.00000000	          0.00000000	         -0.37670478	          0.00000000	
          0.02200000	        -32.50590519	        330.88551934	        -44.42202450	         -0.21584782	          0.00000000	          0.21280900	         35.04358714	        279.09119882	         47.82558117	         -0.53299343	          0.00000000	         -0.24075807	          0.00000000	          0.96355368	          0.00000000	          0.00000000	         -0.37532368	          0.00000000	
          0.02300000	        -32.49850512	        330.89347055	        -44.42021721	         -0.21584155	          0.00000000	          0.21279052	         35.03687944	        279.08139122	         47.82521679	         -0.53295397	          0.00000000	         -0.24075415	          0.00000000	          0.96408278	          0.00000000	          0.00000000	         -0.37400158	          0.00000000	
          0.02400000	        -32.49129799	        330.90171420	        -44.41826346	         -0.21583512	          0.00000000	          0.21277163	         35.02994918	        279.07236166	         47.82460828	         -0.53291400	          0.00000000	         -0.24075043	          0.00000000	          0.96458656	          0.00000000	          0.00000000	         -0.37273698	          0.00000000	
          0.02500000	        -32.48428534	        330.91023618	        -44.41616829	         -0.21582852	          0.00000000	          0.21275236	         35.02282341	        279.06404308	         47.82374951	         -0.53287354	          0.00000000	         -0.24074691	          0.00000000	          0.96506584	          0.00000000	          0.00000000	         -0.37152869	          0.00000000	
          0.02600000	        -32.47746863	        330.91902237	        -44.41393809	         -0.21582178	          0.00000000	          0.21273271	         35.01552910	        279.05636416	         47.82263684	         -0.53283265	          0.00000000	         -0.24074354	          0.00000000	          0.96552134	          0.00000000	          0.00000000	         -0.37037576	          0.00000000	
          0.02700000	        -32.47084894	        330.92805872	        -44.41157990	         -0.21581488	          0.00000000	          0.21271272	         35.00809254	        279.04924870	         47.82126931	         -0.53279134	          0.00000000	         -0.24074029	          0.00000000	          0.96595373	          0.00000000	          0.00000000	         -0.36927742	          0.00000000	
